HIERARCHY
ROOT Hips
{
    OFFSET 0.000000 0.000000 0.000000
    CHANNELS 6 Xposition Yposition Zposition Zrotation Xrotation Yrotation
    JOINT Spine
    {
        OFFSET -0.000000 7.246840 0.000000
        CHANNELS 3 Zrotation Xrotation Yrotation
        JOINT Spine1
        {
            OFFSET -0.000000 20.289354 0.000000
            CHANNELS 3 Zrotation Xrotation Yrotation
            JOINT Neck
            {
                OFFSET -0.000000 20.206032 1.836912
                CHANNELS 3 Zrotation Xrotation Yrotation
                JOINT Head
                {
                    OFFSET -0.000000 12.372654 -1.767522
                    CHANNELS 3 Zrotation Xrotation Yrotation
                    End Site
                    {
                        OFFSET -0.000000 22.094025 0.000000
                    }
                }
            }
            JOINT LeftShoulder
            {
                OFFSET 3.465871 17.201674 -0.568930
                CHANNELS 3 Zrotation Xrotation Yrotation
                JOINT LeftArm
                {
                    OFFSET 14.070313 0.000000 0.000000
                    CHANNELS 3 Zrotation Xrotation Yrotation
                    JOINT LeftForeArm
                    {
                        OFFSET 26.549477 0.000000 0.000000
                        CHANNELS 3 Zrotation Xrotation Yrotation
                        JOINT LeftHand
                        {
                            OFFSET 18.880413 0.000000 0.000000
                            CHANNELS 3 Zrotation Xrotation Yrotation
                            End Site
                            {
                                OFFSET 13.256415 0.000000 0.000000
                            }
                        }
                    }
                }
            }
            JOINT RightShoulder
            {
                OFFSET -3.526370 17.201674 -0.568930
                CHANNELS 3 Zrotation Xrotation Yrotation
                JOINT RightArm
                {
                    OFFSET -14.070313 0.000000 0.000000
                    CHANNELS 3 Zrotation Xrotation Yrotation
                    JOINT RightForeArm
                    {
                        OFFSET -26.549477 0.000000 0.000000
                        CHANNELS 3 Zrotation Xrotation Yrotation
                        JOINT RightHand
                        {
                            OFFSET -18.880413 0.000000 0.000000
                            CHANNELS 3 Zrotation Xrotation Yrotation
                            End Site
                            {
                                OFFSET -13.256415 0.000000 0.000000
                            }
                        }
                    }
                }
            }
        }
    }
    JOINT LeftUpLeg
    {
        OFFSET 8.837609 0.000000 0.000000
        CHANNELS 3 Zrotation Xrotation Yrotation
        JOINT LeftLeg
        {
            OFFSET -0.000000 -41.345005 0.000000
            CHANNELS 3 Zrotation Xrotation Yrotation
            JOINT LeftFoot
            {
                OFFSET -0.000000 -35.500874 0.000000
                CHANNELS 3 Zrotation Xrotation Yrotation
                JOINT LeftToeBase
                {
                    OFFSET -0.000000 -5.744446 13.256415
                    CHANNELS 3 Zrotation Xrotation Yrotation
                    End Site
                    {
                        OFFSET -0.000000 0.000000 3.535044
                    }
                }
            }
        }
    }
    JOINT RightUpLeg
    {
        OFFSET -8.837609 0.000000 0.000000
        CHANNELS 3 Zrotation Xrotation Yrotation
        JOINT RightLeg
        {
            OFFSET -0.000000 -41.345005 0.000000
            CHANNELS 3 Zrotation Xrotation Yrotation
            JOINT RightFoot
            {
                OFFSET -0.000000 -35.500874 0.000000
                CHANNELS 3 Zrotation Xrotation Yrotation
                JOINT RightToeBase
                {
                    OFFSET -0.000000 -5.744446 13.256415
                    CHANNELS 3 Zrotation Xrotation Yrotation
                    End Site
                    {
                        OFFSET -0.000000 0.000000 3.535044
                    }
                }
            }
        }
    }
}
MOTION
Frames:    8
Frame Time:    0.010000
2.468467    82.408043    -21.836254    3.536541    4.439116    -4.716098    -4.918384    -14.053633    -0.560211    1.953043    1.028120    0.030407    -0.032583    28.494305    -1.273040    3.827037    -9.929827    -0.459727    17.477249    1.768660    7.625470    -37.970543    13.416905    -11.446131    1.993890    -3.233925    -5.911387    -4.907662    -2.311360    -18.975964    -14.909739    -1.726701    13.485172    22.423374    1.156604    10.320898    -4.471554    -15.622314    9.612383    -3.614215    -15.528553    8.820278    -2.324726    5.543951    3.044652    -0.917040    -9.454288    -0.656262    -0.008771    1.698662    -1.610653    -0.897687    -2.823284    1.278664    -12.395655    1.352388    6.011555    8.270782    -11.290647    1.499537    4.396545    1.469537    -4.127506    -1.066610    2.197452    1.868837    
2.470553    82.407906    -21.829041    3.531085    4.441067    -4.699733    -4.935440    -14.062451    -0.568314    1.974533    1.027518    0.024652    -0.005549    28.485449    -1.281205    3.795985    -9.942854    -0.471592    17.488609    1.780918    7.623810    -37.959187    13.550797    -11.475533    2.002358    -3.272017    -5.885793    -4.817454    -2.360849    -19.061972    -14.910546    -1.729128    13.479508    22.389940    1.195294    10.314591    -4.479537    -15.664869    9.597771    -3.475482    -15.561516    8.847197    -2.313743    5.536176    3.057206    -0.921951    -9.435544    -0.716087    -0.208030    1.606663    -1.764935    -1.171157    -2.702167    1.666898    -12.386904    1.352830    5.995683    8.258220    -11.273124    1.490049    4.400487    1.449808    -4.117020    -1.069587    2.200557    1.873993    
2.477097    82.407524    -21.819818    3.532821    4.435735    -4.692279    -4.942404    -14.066165    -0.568153    1.985741    1.028496    0.024862    -0.005180    28.462818    -1.274667    3.789229    -9.931516    -0.466685    17.477898    1.787933    7.613582    -37.950207    13.498339    -11.471056    1.976251    -3.200377    -5.907161    -4.706579    -2.306172    -19.122906    -14.935841    -1.729432    13.473207    22.387024    1.217089    10.307474    -4.489814    -15.735371    9.602160    -3.323672    -15.620281    8.867451    -2.312730    5.546878    3.018824    -0.927469    -9.430953    -0.777544    -0.205839    1.594669    -1.675652    -1.174733    -2.701877    1.671984    -12.392852    1.363302    5.987247    8.259072    -11.265421    1.485716    4.416991    1.451288    -4.098197    -1.052929    2.171168    1.845369    
2.482110    82.407593    -21.812353    3.529945    4.429117    -4.689485    -4.950931    -14.060839    -0.562482    2.002339    1.025983    0.031157    -0.080881    28.429911    -1.268254    3.911374    -9.912529    -0.441834    17.472820    1.787205    7.607790    -37.928295    13.569366    -11.485998    1.997404    -3.179944    -5.918502    -4.683285    -2.287070    -19.153614    -14.951122    -1.728404    13.452115    22.383808    1.219415    10.303455    -4.513962    -15.786842    9.607649    -3.137629    -15.656524    8.897434    -2.316542    5.545439    3.027004    -0.936057    -9.403441    -0.677362    -0.175029    1.577999    -1.793565    -1.179216    -2.709406    1.678444    -12.396890    1.371402    5.990324    8.266262    -11.257619    1.493184    4.407476    1.434014    -4.111615    -1.067693    2.187744    1.870922    
2.488658    82.408264    -21.804453    3.530059    4.417263    -4.682160    -4.936003    -14.046292    -0.560001    1.961750    1.014010    0.031601    -0.014294    28.414225    -1.277761    3.869595    -9.909163    -0.453389    17.510733    1.803042    7.609419    -37.926250    13.613022    -11.500969    2.021355    -3.151686    -5.930184    -4.668282    -2.258963    -19.175695    -14.936389    -1.717328    13.463018    22.384670    1.193447    10.268953    -4.522243    -15.828919    9.653337    -2.989516    -15.684924    8.890515    -2.320991    5.552904    3.011884    -0.933622    -9.383929    -0.707179    -0.173364    1.567382    -1.745669    -1.162254    -2.734422    1.654563    -12.402045    1.384239    5.965394    8.269554    -11.242183    1.501527    4.416257    1.425682    -4.102163    -1.057781    2.186278    1.853582    
2.491767    82.407990    -21.797810    3.525501    4.407350    -4.675658    -4.940492    -14.031830    -0.559920    1.967765    1.011072    0.031792    -0.043838    28.386154    -1.271790    3.934989    -9.904365    -0.436052    17.509974    1.795821    7.615047    -37.904865    13.658620    -11.495631    2.033788    -3.124254    -5.987999    -4.662910    -2.232695    -19.128725    -14.941092    -1.705007    13.448731    22.383562    1.157109    10.275110    -4.518817    -15.857740    9.673781    -2.925507    -15.708826    8.905267    -2.314319    5.551723    3.011150    -0.932048    -9.353071    -0.782982    -0.174430    1.546758    -1.676700    -1.176574    -2.722198    1.674818    -12.398791    1.396913    5.953465    8.267309    -11.229886    1.519290    4.417019    1.410804    -4.114862    -1.061606    2.164237    1.860709    
2.497648    82.407883    -21.791025    3.525891    4.392816    -4.671339    -4.927208    -14.010144    -0.554396    1.931514    0.997136    0.034692    0.003152    28.394922    -1.282737    3.912242    -9.939128    -0.445852    17.540804    1.792233    7.604466    -37.897469    13.714259    -11.465675    2.046986    -3.127513    -6.069281    -4.686401    -2.232462    -19.067368    -14.914420    -1.695505    13.456007    22.375710    1.113800    10.257605    -4.497372    -15.866559    9.697453    -2.940858    -15.719854    8.913198    -2.314613    5.561003    2.980306    -0.961757    -9.325793    -0.648614    -0.154417    1.532164    -1.785166    -1.163007    -2.754211    1.655842    -12.405153    1.410545    5.943129    8.272365    -11.215092    1.524666    4.441236    1.385295    -4.116948    -1.076573    2.183205    1.886568    
2.503091    82.408264    -21.784533    3.524359    4.379600    -4.669611    -4.936189    -13.988543    -0.556497    1.954309    0.989897    0.032972    -0.000871    28.400158    -1.273315    3.895926    -9.990203    -0.438573    17.518904    1.780490    7.608563    -37.888191    13.717870    -11.433058    2.057986    -3.102939    -6.146928    -4.692453    -2.206979    -19.016975    -14.921655    -1.682073    13.459708    22.352758    1.124122    10.266967    -4.489927    -15.874276    9.701866    -2.974562    -15.730169    8.898704    -2.316224    5.563143    3.004931    -0.949149    -9.298038    -0.788479    0.010713    1.604895    -1.492681    -0.901471    -2.890769    1.284603    -12.406036    1.418278    5.926449    8.269003    -11.189622    1.515895    4.465798    1.357158    -4.085612    -1.073172    2.173941    1.880789    
